<svg xmlns="http://www.w3.org/2000/svg" width="46" height="47" viewBox="0 0 46 47" fill="none">
  <path d="M23.1113 2.86035C19.002 2.86514 15.0623 4.4809 12.1565 7.35319C9.25078 10.2255 7.61619 14.1198 7.61134 18.1818C7.60642 21.5013 8.70336 24.7307 10.7339 27.3746C10.7339 27.3746 11.1566 27.9248 11.2257 28.0042L23.1113 41.8604L35.0026 27.9972C35.0646 27.9234 35.4888 27.3746 35.4888 27.3746L35.4902 27.3705C37.5197 24.7277 38.6161 21.4997 38.6113 18.1818C38.6065 14.1198 36.9719 10.2255 34.0661 7.35319C31.1604 4.4809 27.2207 2.86514 23.1113 2.86035ZM23.1113 23.7532C21.9966 23.7532 20.9068 23.4265 19.9799 22.8143C19.053 22.2021 18.3306 21.3319 17.904 20.3139C17.4774 19.2958 17.3658 18.1756 17.5833 17.0948C17.8008 16.0141 18.3376 15.0214 19.1258 14.2422C19.9141 13.463 20.9184 12.9324 22.0117 12.7174C23.1051 12.5024 24.2384 12.6128 25.2683 13.0345C26.2982 13.4561 27.1785 14.1702 27.7978 15.0865C28.4171 16.0027 28.7477 17.0799 28.7477 18.1818C28.7458 19.6588 28.1514 21.0749 27.0948 22.1193C26.0382 23.1638 24.6056 23.7514 23.1113 23.7532Z" fill="#DC004F"/>
  <rect x="15.6113" y="10.8604" width="14" height="14" fill="#DC004F"/>
  <path d="M29.2708 15.6574H28.1961C28.1961 15.6574 28.1131 16.8477 29.0781 17.857H27.6124C27.0174 17.857 26.4351 17.6681 25.9821 17.3048C25.6952 17.0749 25.4293 16.7578 25.2873 16.3219C25.2212 16.1198 25.1916 15.9084 25.1916 15.697V13.0918C25.1916 12.488 25.0285 11.8909 24.7007 11.3704C24.2872 10.7125 23.5333 10.0268 22.1632 9.87488C22.069 9.86431 21.9734 9.86035 21.8777 9.86035H20.0688V10.8525H21.7061C22.1478 10.8525 22.5838 10.9529 22.9678 11.159C23.349 11.3624 23.7471 11.698 23.9595 12.2489C24.0495 12.4841 24.0917 12.7351 24.0917 12.9848V15.915C24.0917 15.915 24.0635 16.9758 25.0285 17.8557H15.6113V18.8597H25.0271C25.0271 18.8597 24.1184 19.6154 24.1184 20.8837V23.6038C24.1184 23.9935 24.0228 24.3793 23.8258 24.7228C23.6402 25.0465 23.3377 25.3873 22.8483 25.6119C22.5332 25.7559 22.1843 25.8259 21.8327 25.8259H20.0857L20.0688 26.8604H21.7328C22.3194 26.8604 22.9003 26.7322 23.4179 26.4719C24.0017 26.1787 24.6262 25.6661 24.9708 24.7704C25.1213 24.3793 25.193 23.9645 25.193 23.5483V21.0514C25.193 20.5653 25.3548 20.0897 25.6699 19.7039C25.9203 19.3987 26.2972 19.1041 26.8669 18.943C27.1215 18.8716 27.3873 18.8386 27.6532 18.8386H29.1329C29.1329 18.8386 28.1961 19.589 28.1961 21.0382L29.2708 21.0118C29.2708 21.0118 29.2708 19.3089 31.1092 18.9152C31.2737 18.8795 31.4425 18.8637 31.6113 18.8637V17.8544C31.3863 17.8544 31.1626 17.8253 30.9474 17.7632C30.3384 17.5888 29.3467 17.0842 29.2708 15.6574Z" fill="white"/>
</svg>