<svg xmlns="http://www.w3.org/2000/svg" width="24" height="24" viewBox="0 0 24 24" fill="none">
  <rect width="24" height="24" rx="6.65122" fill="#DC004F"/>
  <path d="M16.6228 10.2136H15.7161C15.7161 10.2136 15.6461 11.2639 16.4602 12.1545H15.2235C14.7215 12.1545 14.2302 11.9878 13.848 11.6673C13.6059 11.4644 13.3816 11.1847 13.2617 10.8C13.206 10.6216 13.181 10.4351 13.181 10.2486V7.94989C13.181 7.41718 13.0434 6.89029 12.7668 6.43101C12.4179 5.8505 11.7818 5.24551 10.6258 5.11146C10.5463 5.10213 10.4656 5.09863 10.3849 5.09863H8.85867V5.97406H10.2401C10.6128 5.97406 10.9807 6.06265 11.3047 6.2445C11.6263 6.42401 11.9622 6.7201 12.1414 7.20619C12.2174 7.41368 12.253 7.63516 12.253 7.85547V10.441C12.253 10.441 12.2292 11.377 13.0434 12.1533H5.09766V13.0393H13.0422C13.0422 13.0393 12.2755 13.706 12.2755 14.8251V17.2252C12.2755 17.5691 12.1948 17.9095 12.0286 18.2126C11.872 18.4982 11.6168 18.7989 11.2038 18.9971C10.938 19.1241 10.6436 19.1859 10.3469 19.1859H8.87291L8.85867 20.0986H10.2627C10.7576 20.0986 11.2477 19.9856 11.6845 19.7559C12.177 19.4971 12.7039 19.0449 12.9947 18.2545C13.1217 17.9095 13.1822 17.5435 13.1822 17.1763V14.9731C13.1822 14.5442 13.3187 14.1245 13.5846 13.7841C13.7958 13.5149 14.1139 13.2549 14.5945 13.1127C14.8094 13.0498 15.0337 13.0206 15.258 13.0206H16.5065C16.5065 13.0206 15.7161 13.6827 15.7161 14.9615L16.6228 14.9382C16.6228 14.9382 16.6228 13.4356 18.174 13.0882C18.3128 13.0567 18.4552 13.0428 18.5977 13.0428V12.1522C18.4078 12.1522 18.2191 12.1265 18.0375 12.0717C17.5236 11.9179 16.6869 11.4726 16.6228 10.2136Z" fill="white"/>
</svg>